<svg width="20" height="20" viewBox="0 0 20 20" fill="none" xmlns="http://www.w3.org/2000/svg">
<path d="M19.2 0H1.07171e-05C-1.33963e-05 1 1.07171e-05 1.5575 1.07171e-05 2L0 20C1 20 1.5575 20 2 20H18C18.4425 20 19 20 20 20V1.89692e-05C19.5 0 19.6425 0 19.2 0ZM16.89 5.8375H15.2925C14.04 5.8375 13.7975 6.4325 13.7975 7.3075V9.235H16.7875L16.3975 12.2525H13.7975V20H10.68V12.255H8.07251V9.235H10.68V7.01C10.68 4.4275 12.2575 3.02 14.5625 3.02C15.6675 3.02 16.615 3.1025 16.8925 3.14V5.8375H16.89Z" fill="#404040"/>
</svg>
