<svg width="20" height="20" viewBox="0 0 20 18" fill="none" xmlns="http://www.w3.org/2000/svg">
<path d="M18.163 1.80252C17.1019 0.767263 15.695 0.137838 14.1982 0.0287113C12.7015 -0.0804155 11.2142 0.338004 10.0071 1.20788C8.73534 0.28534 7.15246 -0.132983 5.57716 0.0371496C4.00187 0.207282 2.55117 0.953231 1.51722 2.12478C0.483263 3.29633 -0.0571552 4.80646 0.00479304 6.35106C0.0667413 7.89567 0.726454 9.36001 1.85108 10.4492L9.2974 17.7116C9.39032 17.803 9.50087 17.8755 9.62267 17.925C9.74447 17.9745 9.87511 18 10.0071 18C10.139 18 10.2696 17.9745 10.3914 17.925C10.5132 17.8755 10.6238 17.803 10.7167 17.7116L18.163 10.4492C18.7454 9.88159 19.2074 9.20762 19.5226 8.4658C19.8378 7.72398 20 6.92886 20 6.12586C20 5.32287 19.8378 4.52775 19.5226 3.78593C19.2074 3.04411 18.7454 2.37014 18.163 1.80252ZM16.7537 9.07471L10.0071 15.645L3.26038 9.07471C2.66585 8.49244 2.26085 7.75192 2.09619 6.94602C1.93152 6.14013 2.01453 5.30475 2.33479 4.54469C2.65506 3.78463 3.19831 3.13373 3.89642 2.67364C4.59452 2.21356 5.41638 1.96477 6.2589 1.95849C7.38446 1.96118 8.46291 2.39944 9.25742 3.17702C9.35034 3.26839 9.46089 3.34091 9.58269 3.3904C9.70449 3.43989 9.83513 3.46537 9.96707 3.46537C10.099 3.46537 10.2297 3.43989 10.3515 3.3904C10.4733 3.34091 10.5838 3.26839 10.6767 3.17702C11.4946 2.48576 12.5513 2.12338 13.6328 2.16323C14.7143 2.20308 15.7399 2.64218 16.502 3.39167C17.2641 4.14115 17.7058 5.14503 17.7377 6.20014C17.7696 7.25524 17.4693 8.28275 16.7537 9.07471Z" fill="#404040"/>
</svg>
