<svg width="20" height="20" viewBox="0 0 20 20" fill="none" xmlns="http://www.w3.org/2000/svg">
<path d="M9.99836 6.66597C8.16215 6.66597 6.66367 8.16448 6.66367 10.0007C6.66367 11.837 8.16215 13.3355 9.99836 13.3355C11.8346 13.3355 13.333 11.837 13.333 10.0007C13.333 8.16448 11.8346 6.66597 9.99836 6.66597ZM19.9999 10.0007C19.9999 8.61979 19.9999 7.5 19.9999 6C19.9999 5.65424 19.9999 5.32343 19.9999 4.99981C19.9999 2.2384 17.7615 -1.8648e-05 15.0001 3.61656e-06C14.7285 5.80666e-06 14.4464 9.0417e-06 14.1411 1.34569e-05C12.4999 0.00146924 11.3793 0.00146924 10.0009 0.00146924C8.61995 0.00146924 7.50105 0.000716097 6.00105 0.000736282C5.62787 0.000739179 5.30471 0.000739733 4.99963 0.000738754C2.23895 0.000729898 0.00144163 2.23812 0.00178026 4.9988C0.00182119 5.33251 0.00185417 5.66623 0.00186927 5.99997C0.00177877 7.49997 0.00179047 8.99998 0.00179047 10.0007C0.00179047 11.3792 0.00186495 13.5 0.00186061 15C0.00183341 17.7614 2.24074 20 5.00216 20C5.35623 20 5.68883 20 6 20C7.42413 20 8.62245 20 10.0009 20C11.3818 20 12.5017 20 14.0017 20C14.3642 20 14.6951 20 15.0037 20C17.7639 20 20.001 17.7633 20.0001 15.0031C20 14.6582 19.9999 14.3291 19.9999 14C19.9999 12 19.9999 11.3817 19.9999 10.0007ZM9.99836 15.1317C7.15899 15.1317 4.86749 12.8401 4.86749 10.0007C4.86749 7.1613 7.15899 4.86976 9.99836 4.86976C12.8377 4.86976 15.1292 7.1613 15.1292 10.0007C15.1292 12.8401 12.8377 15.1317 9.99836 15.1317ZM15.3394 5.85793C14.6764 5.85793 14.1411 5.32257 14.1411 4.65962C14.1411 3.99667 14.6764 3.46131 15.3394 3.46131C16.0023 3.46131 16.5377 3.99667 16.5377 4.65962C16.5379 4.81704 16.507 4.97295 16.4468 5.11842C16.3867 5.2639 16.2984 5.39608 16.1871 5.50739C16.0758 5.6187 15.9436 5.70696 15.7982 5.76711C15.6527 5.82726 15.4968 5.85812 15.3394 5.85793Z" fill="#404040"/>
</svg>
